# xmcd
#
# Track frame offsets:
# 150
# 12015
# 22124
# 36565
# 49426
# 62853
# 74633
# 80297
# 90210
# 103618
# 114587
# 124542
# 136360
# 150393
# 160750
# 169442
# 178999
# 191373
#
# Disc length: 2745 seconds
#
#
# Revision: 2
# Processed by: cddbd v1.5.1PL2 Copyright (c) Steve Scherf et al.
# Submitted via: FreeRIP 2.944 
#
DISCID=f40ab712
DTITLE=Various Artist - Queens Of Country
DYEAR=2000
DGENRE=Country
TTITLE0=Skeeter Davis - The End Of The World
TTITLE1=Patsy Cline - Three Cigarettes In An Ashtray
TTITLE2=Jeannie C. Riley - Harper Valley PTA
TTITLE3=Lynn Anderson - Rose Garden
TTITLE4=Patti Page - Tennessee Waltz
TTITLE5=Barbara Fairchild - You Can't Put The City In A Country Girl
TTITLE6=Loretta Lynn - The Pill
TTITLE7=Billie Jo Spears - My Arms Stay Open Late
TTITLE8=Anne Murray - There Goes My Everything
TTITLE9=Donna Fargo - All That's Keeping Me Alive
TTITLE10=Patti Page - A Poor Man's Roses
TTITLE11=Skeeter Davis - [I Can't Help You] I'm Falling Too
TTITLE12=Rita Remington - Angel Of The Morning
TTITLE13=Patsy Cline - I Love You, Honey
TTITLE14=Billie Jo Anderson - You're My Man
TTITLE15=Jeannie C. Riley - The Girl Most Likely To
TTITLE16=Lynn Anderson - Stand By Your Man
TTITLE17=Loretta Lynn - Coal Miner's Daughter
EXTD=PIESD 216
EXTT0=
EXTT1=
EXTT2=
EXTT3=
EXTT4=
EXTT5=
EXTT6=
EXTT7=
EXTT8=
EXTT9=
EXTT10=
EXTT11=
EXTT12=
EXTT13=
EXTT14=
EXTT15=
EXTT16=
EXTT17=
PLAYORDER=
